<svg width="207" height="30" viewBox="0 0 207 30" fill="none" xmlns="http://www.w3.org/2000/svg">
<g clip-path="url(#clip0_277_299)">
<path d="M12.446 0.147232C5.67512 0.400831 0.209745 6.65267 0.00607489 14.3861C-0.212253 22.7103 5.72933 29.526 13.0263 29.526H27.7345C27.8297 29.526 27.9059 29.4393 27.9059 29.3308V24.01C27.9059 23.9015 27.8297 23.8149 27.7345 23.8149H12.9984C8.67739 23.8149 5.0685 19.8988 5.00549 14.9668C4.94102 9.95461 8.4957 5.85346 12.8739 5.85346L27.7345 5.78504C27.8281 5.78504 27.9044 5.69663 27.9044 5.58983V0.267367C27.9044 0.158916 27.8267 0.0721436 27.7329 0.0721436L12.446 0.147232Z" fill="white"/>
<path d="M50.2097 17.6196C54.4869 17.6196 57.9595 13.6119 57.8965 8.71489C57.8349 3.89629 54.3095 0.0704346 50.0867 0.0704346H31.2847C31.1895 0.0704346 31.1133 0.157186 31.1133 0.265657V29.3308C31.1133 29.4392 31.1895 29.526 31.2847 29.526H35.9471C36.0423 29.526 36.1185 29.4392 36.1185 29.3308V5.97855C36.1185 5.87011 36.1948 5.78334 36.29 5.78334H50.138C51.5945 5.78334 52.8384 7.07308 52.8897 8.73322C52.944 10.4735 51.7205 11.9084 50.2083 11.9084L36.9684 11.9217C36.8161 11.9217 36.7399 12.1319 36.8468 12.2554L51.9285 29.4692C51.9608 29.5059 52.0048 29.526 52.0501 29.526H58.6438C58.7961 29.526 58.8723 29.3158 58.7654 29.1923L48.6362 17.6313C48.6332 17.628 48.6346 17.6196 48.6346 17.6196L50.2097 17.6196Z" fill="white"/>
<path d="M127.477 0.0789795H122.814C122.72 0.0789795 122.643 0.165731 122.643 0.274202V26.2326C122.643 28.0513 123.935 29.5262 125.529 29.5262H144.071C144.166 29.5262 144.242 29.4394 144.242 29.331V24.0101C144.242 23.9017 144.166 23.8149 144.071 23.8149H127.82C127.724 23.8149 127.648 23.7283 127.648 23.6197V0.274181C127.648 0.165731 127.572 0.0789795 127.477 0.0789795Z" fill="white"/>
<path d="M105.605 0.263933C105.473 0.00365648 105.143 0.00365648 105.011 0.263933L90.3545 29.2324C90.2886 29.3624 90.3707 29.526 90.5025 29.526H95.8844C95.9459 29.526 96.0017 29.4893 96.0324 29.4275L105.159 11.3911C105.225 11.261 105.391 11.261 105.457 11.3911L111.587 23.5211C111.653 23.6511 111.571 23.8147 111.439 23.8147H103.438C103.376 23.8147 103.32 23.8514 103.29 23.9132L100.601 29.2272C100.535 29.3575 100.617 29.5209 100.749 29.5209C105.111 29.5227 117.983 29.5242 120.097 29.5242C120.229 29.5242 120.312 29.3624 120.245 29.2324C118.666 26.1055 105.605 0.263933 105.605 0.263933Z" fill="white"/>
<path d="M206.828 0.0785336H200.742C200.69 0.0785336 200.644 0.10357 200.609 0.148615L191.763 12.1818C191.694 12.2752 191.57 12.2752 191.501 12.1818L182.65 0.148615C182.617 0.105239 182.569 0.0785336 182.521 0.0785336C181.177 0.0785336 162.026 0.0751953 154.646 0.0751953C154.551 0.0751953 154.477 0.161947 154.477 0.270419V5.58624C154.477 5.69468 154.553 5.78146 154.648 5.78146H164.722C164.817 5.78146 164.893 5.86988 164.893 5.97668V29.3289C164.893 29.4374 164.969 29.5241 165.064 29.5241H169.727C169.822 29.5241 169.898 29.4374 169.898 29.3289V5.97831C169.898 5.86987 169.974 5.7831 170.07 5.7831H180.183C180.233 5.7831 180.282 5.80812 180.314 5.85317L189.09 17.7912C189.117 17.8262 189.129 17.8714 189.129 17.9164V29.3305C189.129 29.439 189.205 29.5258 189.302 29.5258H193.963C194.058 29.5258 194.135 29.439 194.135 29.3305V17.9164C194.135 17.8696 194.149 17.8264 194.175 17.7912L206.959 0.402194C207.054 0.272067 206.974 0.0785336 206.828 0.0785336Z" fill="white"/>
<path d="M147.319 29.5258H151.981C152.077 29.5258 152.153 29.4392 152.153 29.3306V0.273836C152.153 0.165386 152.077 0.0786133 151.981 0.0786133H147.319C147.224 0.0786133 147.147 0.165365 147.147 0.273836V29.329C147.147 29.4374 147.224 29.5258 147.319 29.5258Z" fill="white"/>
<path d="M87.9735 5.58813V0.263988C87.9735 0.157207 87.8974 0.0704346 87.802 0.0704346H73.3124C66.1809 0.0704346 60.3787 6.67766 60.3787 14.7982C60.3787 22.9188 66.1809 29.526 73.3124 29.526H87.802C87.8959 29.526 87.9735 29.4392 87.9735 29.3308V24.0083C87.9735 23.9015 87.8974 23.8131 87.802 23.8131H73.3124C69.8236 23.8131 66.8564 21.2285 65.8043 17.6531H87.802C87.8959 17.6531 87.9735 17.5662 87.9735 17.4578V12.1353C87.9735 12.0285 87.8972 11.9401 87.802 11.9401H65.8059C66.8579 8.3645 69.8251 5.78 73.3137 5.78H87.8036C87.8974 5.78168 87.9735 5.69491 87.9735 5.58813Z" fill="white"/>
</g>
<defs>
<clipPath id="clip0_277_299">
<rect width="207" height="30" fill="white" transform="translate(0.000244141)"/>
</clipPath>
</defs>
</svg>
